<svg xmlns="http://www.w3.org/2000/svg" x="0px" y="0px"
     width="64" height="64"
     viewBox="0 0 172 172"
     style=" fill:#000000;"><g fill="none" fill-rule="nonzero" stroke="none" stroke-width="1" stroke-linecap="butt" stroke-linejoin="miter" stroke-miterlimit="10" stroke-dasharray="" stroke-dashoffset="0" font-family="none" font-weight="none" font-size="none" text-anchor="none" style="mix-blend-mode: normal"><path d="M0,172v-172h172v172z" fill="none"></path><g fill="#475f7b"><path d="M56.4375,13.76c-0.94062,0.20156 -1.76031,0.77938 -2.2575,1.6125l-53.6425,86c-0.645,0.99438 -0.72562,2.2575 -0.215,3.3325l26.875,55.04c0.57781,1.19594 1.78719,1.94844 3.1175,1.935h108.36c1.26313,-0.01344 2.41875,-0.71219 3.01,-1.8275l29.885,-55.04c0.57781,-1.08844 0.5375,-2.39187 -0.1075,-3.44l-53.6425,-86c-0.63156,-1.00781 -1.72,-1.6125 -2.9025,-1.6125h-57.835c-0.1075,0 -0.215,0 -0.3225,0c-0.1075,0 -0.215,0 -0.3225,0zM59.4475,20.64h53.535l50.525,81.055l-62.35,-19.135zM58.265,21.93l14.2975,58.5875l-40.3125,74.0675l-24.8325,-51.17zM85.355,73.6375l16.77,26.1225h-32.25zM164.475,103.415l-27.8425,51.385h-102.4475l51.815,-46.44z"></path></g></g></svg>