<svg xmlns="http://www.w3.org/2000/svg" x="0px" y="0px"
     width="50" height="50"
     viewBox="0 0 172 172"
     style=" fill:#000000;"><g fill="none" fill-rule="nonzero" stroke="none" stroke-width="1" stroke-linecap="butt" stroke-linejoin="miter" stroke-miterlimit="10" stroke-dasharray="" stroke-dashoffset="0" font-family="none" font-weight="none" font-size="none" text-anchor="none" style="mix-blend-mode: normal"><path d="M0,172v-172h172v172z" fill="none"></path><g fill="#475f7b"><path d="M96.32,13.76c-15.30531,0 -28.46062,8.55969 -35.5825,20.9625c-0.7525,-0.12094 -1.42437,-0.3225 -2.2575,-0.3225c-8.66719,0 -15.61437,6.58438 -16.77,14.9425c-10.105,2.86219 -17.63,11.90563 -17.63,22.8975c0,13.26281 10.81719,24.08 24.08,24.08h75.68c17.05219,0 30.96,-13.90781 30.96,-30.96c0,-13.93469 -9.32562,-25.49094 -22.0375,-29.3475c-6.90687,-13.15531 -20.58625,-22.2525 -36.4425,-22.2525zM96.32,20.64c13.67938,0 25.39688,8.03563 30.96,19.565l0.7525,1.3975l1.505,0.43c10.52156,2.56656 18.3825,11.97281 18.3825,23.3275c0,13.34344 -10.73656,24.08 -24.08,24.08h-75.68c-9.54062,0 -17.2,-7.65937 -17.2,-17.2c0,-8.55969 6.26188,-15.62781 14.405,-16.985l2.9025,-0.43l-0.1075,-3.01c-0.02687,-0.63156 0,-0.72562 0,-0.215c0,-5.73781 4.58219,-10.32 10.32,-10.32c0.91375,0 1.86781,0.12094 2.9025,0.43l2.795,0.86l1.29,-2.58c5.59,-11.43531 17.24031,-19.35 30.8525,-19.35zM13.76,113.52c-3.7625,0 -6.88,3.1175 -6.88,6.88v34.4c0,3.7625 3.1175,6.88 6.88,6.88h144.48c3.7625,0 6.88,-3.1175 6.88,-6.88v-34.4c0,-3.7625 -3.1175,-6.88 -6.88,-6.88zM13.76,120.4h144.48v34.4h-144.48zM30.96,130.72c-3.80281,0 -6.88,3.07719 -6.88,6.88c0,3.80281 3.07719,6.88 6.88,6.88c3.80281,0 6.88,-3.07719 6.88,-6.88c0,-3.80281 -3.07719,-6.88 -6.88,-6.88zM51.6,134.16v6.88h92.88v-6.88z"></path></g></g></svg>