<svg xmlns="http://www.w3.org/2000/svg" x="0px" y="0px"
     width="32" height="32"
     viewBox="0 0 172 172"
     style=" fill:#000000;"><g fill="none" fill-rule="nonzero" stroke="none" stroke-width="1" stroke-linecap="butt" stroke-linejoin="miter" stroke-miterlimit="10" stroke-dasharray="" stroke-dashoffset="0" font-family="none" font-weight="none" font-size="none" text-anchor="none" style="mix-blend-mode: normal"><path d="M0,172v-172h172v172z" fill="none"></path><g fill="#475f7b"><path d="M105.68863,21.5h-18.77487c-18.447,0 -33.16375,14.62 -33.16375,43c0,17.028 6.64888,29.584 20.15088,35.776l-25.198,47.472c-0.82238,1.55338 0,2.752 1.31687,2.752h11.69062c0.989,0 1.65013,-0.344 1.978,-1.19862l23.65538,-47.17638h6.71875l-0.043,47.17638c0,0.516 0.4945,1.19862 1.15025,1.19862h11.01337c0.989,0 1.31688,-0.516 1.31688,-1.37062v-125.90938c0,-1.204 -0.66113,-1.72 -1.81137,-1.72zM94.0625,91.375h-8.0625c-8.0625,0 -18.8125,-6.235 -18.8125,-26.875c0,-21.50537 8.76663,-32.25 18.8125,-32.25h8.0625z"></path></g></g></svg>